HIERARCHY
ROOT Hips
{
	OFFSET	0.00	0.00	0.00
	CHANNELS 6 Xposition Yposition Zposition Zrotation Xrotation Yrotation
	JOINT LeftUpLeg
	{
		OFFSET	 0.126116	-0.014019	-0.065224
		CHANNELS 3 Zrotation Xrotation Yrotation
		JOINT LeftLeg
		{
			OFFSET	 0.000000	 0.000000	 0.569914
			CHANNELS 3 Zrotation Xrotation Yrotation
			JOINT LeftFoot
			{
				OFFSET	 0.000000	 0.000000	 0.544423
				CHANNELS 3 Zrotation Xrotation Yrotation
				JOINT LeftToeBase
				{
					OFFSET	 0.000000	 0.000000	 0.207117
					CHANNELS 3 Zrotation Xrotation Yrotation
					End Site
					{
						OFFSET	 0.000000	 0.000000	 0.207117
					}
				}
			}
		}
	}
	JOINT RightUpLeg
	{
		OFFSET	-0.124023	-0.008373	-0.065224
		CHANNELS 3 Zrotation Xrotation Yrotation
		JOINT RightLeg
		{
			OFFSET	 0.000000	 0.000000	 0.570047
			CHANNELS 3 Zrotation Xrotation Yrotation
			JOINT RightFoot
			{
				OFFSET	 0.000000	 0.000000	 0.544354
				CHANNELS 3 Zrotation Xrotation Yrotation
				JOINT RightToeBase
				{
					OFFSET	 0.000000	 0.000000	 0.207540
					CHANNELS 3 Zrotation Xrotation Yrotation
					End Site
					{
						OFFSET	 0.000000	 0.000000	 0.207540
					}
				}
			}
		}
	}
	JOINT Spine
	{
		OFFSET	 0.000184	-0.007763	 0.117403
		CHANNELS 3 Zrotation Xrotation Yrotation
		JOINT Spine1
		{
			OFFSET	 0.000000	 0.000000	 0.137269
			CHANNELS 3 Zrotation Xrotation Yrotation
			JOINT Spine2
			{
				OFFSET	 0.000000	 0.000000	 0.156879
				CHANNELS 3 Zrotation Xrotation Yrotation
				JOINT LeftShoulder
				{
					OFFSET	 0.080501	-0.002496	 0.160144
					CHANNELS 3 Zrotation Xrotation Yrotation
					JOINT LeftArm
					{
						OFFSET	 0.000000	 0.000000	 0.164363
						CHANNELS 3 Zrotation Xrotation Yrotation
						JOINT LeftForeArm
						{
							OFFSET	 0.000000	 0.000000	 0.364576
							CHANNELS 3 Zrotation Xrotation Yrotation
							JOINT LeftHand
							{
								OFFSET	 0.000000	 0.000000	 0.360812
								CHANNELS 3 Zrotation Xrotation Yrotation
								JOINT LeftHandIndex1
								{
									OFFSET	 0.000000	 0.000000	 0.086006
									CHANNELS 3 Zrotation Xrotation Yrotation
									JOINT LeftHandIndex2
									{
										OFFSET	 0.000000	 0.000000	 0.047236
										CHANNELS 3 Zrotation Xrotation Yrotation
										JOINT LeftHandIndex3
										{
											OFFSET	-0.004284	-0.000551	 0.038166
											CHANNELS 3 Zrotation Xrotation Yrotation
											End Site
											{
												OFFSET	-0.004284	-0.000551	 0.038166
											}
										}
									}
								}
							}
						}
					}
				}
				JOINT Neck
				{
					OFFSET	 0.000000	 0.000000	 0.176489
					CHANNELS 3 Zrotation Xrotation Yrotation
					JOINT Head
					{
						OFFSET	 0.000000	-0.001747	 0.077940
						CHANNELS 3 Zrotation Xrotation Yrotation
						End Site
						{
							OFFSET	 0.000000	-0.001747	 0.077940
						}
					}
				}
				JOINT RightShoulder
				{
					OFFSET	-0.080363	 0.000306	 0.159706
					CHANNELS 3 Zrotation Xrotation Yrotation
					JOINT RightArm
					{
						OFFSET	 0.000000	 0.000000	 0.164196
						CHANNELS 3 Zrotation Xrotation Yrotation
						JOINT RightForeArm
						{
							OFFSET	 0.000000	 0.000000	 0.365611
							CHANNELS 3 Zrotation Xrotation Yrotation
							JOINT RightHand
							{
								OFFSET	 0.000000	 0.000000	 0.360648
								CHANNELS 3 Zrotation Xrotation Yrotation
								JOINT RightHandIndex1
								{
									OFFSET	 0.000000	 0.000000	 0.069977
									CHANNELS 3 Zrotation Xrotation Yrotation
									JOINT RightHandIndex2
									{
										OFFSET	 0.000000	 0.000000	 0.052305
										CHANNELS 3 Zrotation Xrotation Yrotation
										JOINT RightHandIndex3
										{
											OFFSET	 0.009002	-0.000782	 0.042196
											CHANNELS 3 Zrotation Xrotation Yrotation
											End Site
											{
												OFFSET	 0.009002	-0.000782	 0.042196
											}
										}
									}
								}
							}
						}
					}
				}
			}
		}
	}
}
MOTION
Frames:    6
Frame Time: 0.03333334
 0.000154	 0.035616	 1.231885	-0.002072	 0.003681	 0.148548	 25.520420	-14.119150	 175.488700	 0.948651	-32.162900	-2.073155	-20.990090	 78.726120	 15.668270	-2.385833	 28.452760	 0.000004	-25.762640	-14.781250	-176.084800	-0.940029	-32.279310	 2.044217	 18.372290	 78.380390	-13.076240	 2.384658	 28.388730	 0.000004	 33.127050	 2.712316	 0.276642	-1.889173	 3.693137	-0.703525	 5.720004	-4.577017	 1.233700	-91.776260	 78.527420	-180.000000	 42.523610	 31.727240	-50.211890	-26.805520	 3.389374	-9.405884	-42.112850	 1.338688	-4.049327	-2.635965	 4.993658	 6.788941	-5.165319	 0.784187	 3.516649	-5.225038	 0.466231	 0.424329	-0.000002	-3.783157	-0.089647	 5.564432	 4.717084	-0.229378	 89.782110	 78.203890	 180.000000	 2.026872	 12.813580	 105.331600	-15.644230	 3.080855	 9.552169	 16.862120	-1.541048	-5.907107	 6.112037	 4.509576	-0.364401	 4.968462	 1.518543	-9.347576	 5.168945	 0.703820	 2.021906
 0.000105	 0.036162	 1.232553	-0.001640	 0.004023	 0.135727	 25.533940	-13.996800	 175.497800	 0.959496	-31.907720	-2.052714	-20.689460	 78.601910	 15.360570	-2.385833	 28.452760	 0.000004	-25.770830	-14.705270	-176.083200	-0.949401	-32.055970	 2.026604	 18.058430	 78.253210	-12.752140	 2.384658	 28.388730	 0.000004	 29.374350	 2.704587	 0.260663	-1.730720	 3.715775	-0.640992	 5.241261	-4.629210	 1.132204	-91.776260	 78.527470	-180.000000	 42.656120	 31.715600	-50.324530	-23.563330	 2.388384	-7.952188	-42.502610	 1.358707	-4.041504	-2.635965	 4.993658	 6.788941	-5.165319	 0.784187	 3.516649	-5.225038	 0.466231	 0.424329	-0.000002	-3.783157	-0.089647	 5.096491	 4.757242	-0.211854	 89.782100	 78.203890	 180.000000	 1.979952	 12.947310	 105.355800	-18.984580	 2.070334	 8.079720	 17.256750	-1.673879	-5.917546	 6.112037	 4.509576	-0.364401	 4.968462	 1.518543	-9.347576	 5.168945	 0.703820	 2.021906
 0.000078	 0.036686	 1.233109	-0.001874	 0.005103	 0.124527	 25.545860	-13.895870	 175.506000	 0.968482	-31.693790	-2.035660	-20.441330	 78.496390	 15.106640	-2.385833	 28.452760	 0.000004	-25.777020	-14.650760	-176.083800	-0.956871	-31.876260	 2.012498	 17.792970	 78.146070	-12.477630	 2.384658	 28.388730	 0.000004	 24.244130	 2.696401	 0.237044	-1.536704	 3.738301	-0.567765	 4.657142	-4.683431	 1.008397	-91.776150	 78.527470	 180.000000	 42.838250	 31.730430	-50.514570	-20.071770	 1.518783	-6.317943	-42.887160	 1.373890	-4.035646	-2.635965	 4.993658	 6.788941	-5.165319	 0.784187	 3.516649	-5.225038	 0.466231	 0.424329	-0.000002	-3.783157	-0.089647	 4.526522	 4.803109	-0.189952	 89.782010	 78.203900	-180.000000	 1.957064	 13.101630	 105.342800	-22.584600	 1.192483	 6.424806	 17.651590	-1.824710	-5.926627	 6.112037	 4.509576	-0.364401	 4.968462	 1.518543	-9.347576	 5.168945	 0.703820	 2.021906
 0.000066	 0.037201	 1.233553	-0.002266	 0.006250	 0.110717	 25.556810	-13.812330	 175.517100	 0.975798	-31.517870	-2.021702	-20.238510	 78.408330	 14.899040	-2.385833	 28.452760	 0.000004	-25.780910	-14.618370	-176.083200	-0.962522	-31.739090	 2.001770	 17.569210	 78.058770	-12.245730	 2.384658	 28.388730	 0.000004	 17.807470	 2.688451	 0.209933	-1.306386	 3.759829	-0.481545	 3.964106	-4.737117	 0.860289	-91.776170	 78.527470	 180.000000	 43.073450	 31.765980	-50.784540	-16.305410	 0.823721	-4.496404	-43.271220	 1.384140	-4.031886	-2.635965	 4.993658	 6.788941	-5.165319	 0.784187	 3.516649	-5.225038	 0.466231	 0.424329	-0.000002	-3.783157	-0.089647	 3.851511	 4.851720	-0.163242	 89.782140	 78.203900	 180.000000	 1.850257	 13.284210	 105.285900	-26.473130	 0.489585	 4.583027	 18.062630	-1.944976	-5.937107	 6.112037	 4.509576	-0.364401	 4.968462	 1.518543	-9.347576	 5.168945	 0.703820	 2.021906
 0.000031	 0.037730	 1.234216	-0.002854	 0.007378	 0.095207	 25.571900	-13.686840	 175.528100	 0.986536	-31.256860	-2.001087	-19.950760	 78.280220	 14.604370	-2.385833	 28.452760	 0.000004	-25.787290	-14.545870	-176.079100	-0.971497	-31.519470	 1.984651	 17.277150	 77.932590	-11.943700	 2.384658	 28.388730	 0.000004	 10.651230	 2.681614	 0.181216	-1.055250	 3.778090	-0.388182	 3.208853	-4.784108	 0.697694	-91.776150	 78.527450	 180.000000	 43.339600	 31.821570	-51.112560	-12.495740	 0.375375	-2.609747	-43.635750	 1.388919	-4.030575	-2.635965	 4.993658	 6.788941	-5.165319	 0.784187	 3.516649	-5.225038	 0.466231	 0.424329	-0.000002	-3.783157	-0.089647	 3.117124	 4.896493	-0.133322	 89.782040	 78.203900	-180.000000	 0.484253	 13.287500	 105.042200	-30.400960	 0.036013	 2.673497	 18.064080	-1.902672	-5.970135	 6.112037	 4.509576	-0.364401	 4.968462	 1.518543	-9.347576	 5.168945	 0.703820	 2.021906
-0.000037	 0.038276	 1.235140	-0.003217	 0.007919	 0.077019	 25.591610	-13.509310	 175.539300	 1.001314	-30.891930	-1.972450	-19.565090	 78.103020	 14.209170	-2.385833	 28.452760	 0.000004	-25.796940	-14.423960	-176.070000	-0.984399	-31.199600	 1.959865	 16.907660	 77.759280	-11.561980	 2.384658	 28.388730	 0.000004	 3.261108	 2.676759	 0.153811	-0.794704	 3.792253	-0.290659	 2.424739	-4.821323	 0.527364	-91.776250	 78.527450	-180.000000	 43.611390	 31.884430	-51.460170	-8.760152	 0.184873	-0.739381	-43.975410	 1.388718	-4.031603	-2.635965	 4.993658	 6.788941	-5.165319	 0.784187	 3.516649	-5.225038	 0.466231	 0.424329	-0.000002	-3.783157	-0.089647	 2.355831	 4.933510	-0.101516	 89.782100	 78.203890	 180.000000	-2.152591	 13.206520	 104.699100	-34.123460	-0.157528	 0.780354	 17.790350	-1.801921	-5.993965	 6.112037	 4.509576	-0.364401	 4.968462	 1.518543	-9.347576	 5.168945	 0.703820	 2.021906
